<mxfile host="Electron" agent="Mozilla/5.0 (Windows NT 10.0; Win64; x64) AppleWebKit/537.36 (KHTML, like Gecko) draw.io/26.0.9 Chrome/128.0.6613.186 Electron/32.2.5 Safari/537.36" version="26.0.9">
  <diagram name="Page-1" id="LhFmoJe1Ea9e8ZPi2Cto">
    <mxGraphModel dx="546" dy="824" grid="1" gridSize="10" guides="1" tooltips="1" connect="1" arrows="1" fold="1" page="1" pageScale="1" pageWidth="850" pageHeight="1100" math="0" shadow="0">
      <root>
        <mxCell id="0" />
        <mxCell id="1" parent="0" />
        <mxCell id="ZIjUHigKVdCdeJmHMCLA-1" value="Registered&lt;br&gt;User" style="shape=umlActor;verticalLabelPosition=bottom;verticalAlign=top;html=1;outlineConnect=0;" vertex="1" parent="1">
          <mxGeometry x="40" y="300" width="30" height="60" as="geometry" />
        </mxCell>
        <mxCell id="ZIjUHigKVdCdeJmHMCLA-2" value="" style="endArrow=none;html=1;rounded=0;exitX=1;exitY=0.3333333333333333;exitDx=0;exitDy=0;exitPerimeter=0;entryX=0;entryY=0.5;entryDx=0;entryDy=0;" edge="1" parent="1" source="ZIjUHigKVdCdeJmHMCLA-1" target="ZIjUHigKVdCdeJmHMCLA-3">
          <mxGeometry width="50" height="50" relative="1" as="geometry">
            <mxPoint x="160" y="400" as="sourcePoint" />
            <mxPoint x="210" y="350" as="targetPoint" />
          </mxGeometry>
        </mxCell>
        <mxCell id="ZIjUHigKVdCdeJmHMCLA-3" value="Login" style="ellipse;whiteSpace=wrap;html=1;align=center;" vertex="1" parent="1">
          <mxGeometry x="250" y="320" width="100" height="40" as="geometry" />
        </mxCell>
        <mxCell id="ZIjUHigKVdCdeJmHMCLA-4" value="&amp;lt;&amp;lt;include&amp;gt;&amp;gt;" style="endArrow=block;startArrow=none;endFill=0;startFill=0;endSize=8;html=1;verticalAlign=bottom;dashed=1;labelBackgroundColor=none;rounded=0;exitX=1;exitY=0;exitDx=0;exitDy=0;entryX=0;entryY=1;entryDx=0;entryDy=0;" edge="1" parent="1" source="ZIjUHigKVdCdeJmHMCLA-3" target="ZIjUHigKVdCdeJmHMCLA-6">
          <mxGeometry x="-0.2966" y="4" width="160" relative="1" as="geometry">
            <mxPoint x="430" y="310" as="sourcePoint" />
            <mxPoint x="410" y="290" as="targetPoint" />
            <mxPoint as="offset" />
          </mxGeometry>
        </mxCell>
        <mxCell id="ZIjUHigKVdCdeJmHMCLA-6" value="Signup" style="ellipse;whiteSpace=wrap;html=1;align=center;" vertex="1" parent="1">
          <mxGeometry x="390" y="240" width="100" height="40" as="geometry" />
        </mxCell>
        <mxCell id="ZIjUHigKVdCdeJmHMCLA-7" value="&amp;lt;&amp;lt;extend&amp;gt;&amp;gt;" style="endArrow=block;startArrow=none;endFill=0;startFill=0;endSize=8;html=1;verticalAlign=bottom;dashed=1;labelBackgroundColor=none;rounded=0;entryX=1;entryY=1;entryDx=0;entryDy=0;exitX=0;exitY=0.5;exitDx=0;exitDy=0;" edge="1" parent="1" source="ZIjUHigKVdCdeJmHMCLA-8" target="ZIjUHigKVdCdeJmHMCLA-3">
          <mxGeometry x="-0.2325" y="16" width="160" relative="1" as="geometry">
            <mxPoint x="420" y="380" as="sourcePoint" />
            <mxPoint x="510" y="360" as="targetPoint" />
            <mxPoint as="offset" />
          </mxGeometry>
        </mxCell>
        <mxCell id="ZIjUHigKVdCdeJmHMCLA-8" value="Continue As Guest" style="ellipse;whiteSpace=wrap;html=1;align=center;" vertex="1" parent="1">
          <mxGeometry x="390" y="370" width="100" height="40" as="geometry" />
        </mxCell>
        <mxCell id="ZIjUHigKVdCdeJmHMCLA-9" value="Database" style="shape=umlActor;verticalLabelPosition=bottom;verticalAlign=top;html=1;" vertex="1" parent="1">
          <mxGeometry x="670" y="220" width="30" height="60" as="geometry" />
        </mxCell>
        <mxCell id="ZIjUHigKVdCdeJmHMCLA-12" value="" style="endArrow=none;html=1;rounded=0;entryX=0;entryY=0.3333333333333333;entryDx=0;entryDy=0;entryPerimeter=0;exitX=1;exitY=0.5;exitDx=0;exitDy=0;" edge="1" parent="1" source="ZIjUHigKVdCdeJmHMCLA-3" target="ZIjUHigKVdCdeJmHMCLA-9">
          <mxGeometry width="50" height="50" relative="1" as="geometry">
            <mxPoint x="480" y="400" as="sourcePoint" />
            <mxPoint x="530" y="350" as="targetPoint" />
          </mxGeometry>
        </mxCell>
        <mxCell id="ZIjUHigKVdCdeJmHMCLA-14" value="Enter Diet Parameters" style="ellipse;whiteSpace=wrap;html=1;align=center;" vertex="1" parent="1">
          <mxGeometry x="250" y="480" width="100" height="40" as="geometry" />
        </mxCell>
        <mxCell id="ZIjUHigKVdCdeJmHMCLA-15" value="" style="endArrow=none;html=1;rounded=0;exitX=1;exitY=1;exitDx=0;exitDy=0;exitPerimeter=0;entryX=0;entryY=0.5;entryDx=0;entryDy=0;" edge="1" parent="1" source="ZIjUHigKVdCdeJmHMCLA-1" target="ZIjUHigKVdCdeJmHMCLA-14">
          <mxGeometry width="50" height="50" relative="1" as="geometry">
            <mxPoint x="180" y="436" as="sourcePoint" />
            <mxPoint x="290" y="380" as="targetPoint" />
          </mxGeometry>
        </mxCell>
        <mxCell id="ZIjUHigKVdCdeJmHMCLA-16" value="Send Parameters to LLM" style="ellipse;whiteSpace=wrap;html=1;align=center;" vertex="1" parent="1">
          <mxGeometry x="420" y="480" width="100" height="40" as="geometry" />
        </mxCell>
        <mxCell id="ZIjUHigKVdCdeJmHMCLA-17" value="&amp;lt;&amp;lt;extend&amp;gt;&amp;gt;" style="endArrow=open;startArrow=none;endFill=0;startFill=0;endSize=8;html=1;verticalAlign=bottom;dashed=1;labelBackgroundColor=none;rounded=0;entryX=1;entryY=0.5;entryDx=0;entryDy=0;exitX=0;exitY=0.5;exitDx=0;exitDy=0;" edge="1" parent="1" source="ZIjUHigKVdCdeJmHMCLA-16" target="ZIjUHigKVdCdeJmHMCLA-14">
          <mxGeometry width="160" relative="1" as="geometry">
            <mxPoint x="200" y="550" as="sourcePoint" />
            <mxPoint x="360" y="550" as="targetPoint" />
          </mxGeometry>
        </mxCell>
        <mxCell id="ZIjUHigKVdCdeJmHMCLA-19" value="&amp;lt;&amp;lt;include&amp;gt;&amp;gt;" style="endArrow=open;startArrow=none;endFill=0;startFill=0;endSize=8;html=1;verticalAlign=bottom;dashed=1;labelBackgroundColor=none;rounded=0;entryX=0;entryY=0.5;entryDx=0;entryDy=0;exitX=1;exitY=0.5;exitDx=0;exitDy=0;exitPerimeter=0;" edge="1" parent="1" source="ZIjUHigKVdCdeJmHMCLA-30" target="ZIjUHigKVdCdeJmHMCLA-20">
          <mxGeometry x="-0.1429" width="160" relative="1" as="geometry">
            <mxPoint x="360" y="610" as="sourcePoint" />
            <mxPoint x="390" y="600" as="targetPoint" />
            <mxPoint as="offset" />
          </mxGeometry>
        </mxCell>
        <mxCell id="ZIjUHigKVdCdeJmHMCLA-20" value="Recieve LLM Result" style="ellipse;whiteSpace=wrap;html=1;align=center;" vertex="1" parent="1">
          <mxGeometry x="420" y="590" width="100" height="40" as="geometry" />
        </mxCell>
        <mxCell id="ZIjUHigKVdCdeJmHMCLA-21" value="" style="endArrow=none;html=1;rounded=0;exitX=1;exitY=0.5;exitDx=0;exitDy=0;entryX=0;entryY=0.3333333333333333;entryDx=0;entryDy=0;entryPerimeter=0;" edge="1" parent="1" source="ZIjUHigKVdCdeJmHMCLA-16" target="ZIjUHigKVdCdeJmHMCLA-22">
          <mxGeometry width="50" height="50" relative="1" as="geometry">
            <mxPoint x="500" y="400" as="sourcePoint" />
            <mxPoint x="640" y="460" as="targetPoint" />
          </mxGeometry>
        </mxCell>
        <mxCell id="ZIjUHigKVdCdeJmHMCLA-22" value="LLM Model" style="shape=umlActor;verticalLabelPosition=bottom;verticalAlign=top;html=1;" vertex="1" parent="1">
          <mxGeometry x="670" y="480" width="30" height="60" as="geometry" />
        </mxCell>
        <mxCell id="ZIjUHigKVdCdeJmHMCLA-23" value="Save LLM results" style="ellipse;whiteSpace=wrap;html=1;align=center;" vertex="1" parent="1">
          <mxGeometry x="320" y="160" width="100" height="40" as="geometry" />
        </mxCell>
        <mxCell id="ZIjUHigKVdCdeJmHMCLA-24" value="" style="endArrow=none;html=1;rounded=0;exitX=0.75;exitY=0.1;exitDx=0;exitDy=0;exitPerimeter=0;entryX=0;entryY=0.5;entryDx=0;entryDy=0;" edge="1" parent="1" source="ZIjUHigKVdCdeJmHMCLA-1" target="ZIjUHigKVdCdeJmHMCLA-23">
          <mxGeometry width="50" height="50" relative="1" as="geometry">
            <mxPoint x="147" y="360" as="sourcePoint" />
            <mxPoint x="250" y="298" as="targetPoint" />
          </mxGeometry>
        </mxCell>
        <mxCell id="ZIjUHigKVdCdeJmHMCLA-25" value="" style="endArrow=none;html=1;rounded=0;entryX=0.25;entryY=0.1;entryDx=0;entryDy=0;entryPerimeter=0;exitX=1;exitY=0.5;exitDx=0;exitDy=0;" edge="1" parent="1" source="ZIjUHigKVdCdeJmHMCLA-23" target="ZIjUHigKVdCdeJmHMCLA-9">
          <mxGeometry width="50" height="50" relative="1" as="geometry">
            <mxPoint x="350" y="300" as="sourcePoint" />
            <mxPoint x="670" y="200" as="targetPoint" />
          </mxGeometry>
        </mxCell>
        <mxCell id="ZIjUHigKVdCdeJmHMCLA-26" value="" style="endArrow=none;html=1;rounded=0;entryX=0;entryY=0.3333333333333333;entryDx=0;entryDy=0;entryPerimeter=0;exitX=1;exitY=0.5;exitDx=0;exitDy=0;" edge="1" parent="1" source="ZIjUHigKVdCdeJmHMCLA-6" target="ZIjUHigKVdCdeJmHMCLA-9">
          <mxGeometry width="50" height="50" relative="1" as="geometry">
            <mxPoint x="425" y="400" as="sourcePoint" />
            <mxPoint x="745" y="300" as="targetPoint" />
          </mxGeometry>
        </mxCell>
        <mxCell id="ZIjUHigKVdCdeJmHMCLA-27" value="Display Saved LLM Results" style="ellipse;whiteSpace=wrap;html=1;align=center;" vertex="1" parent="1">
          <mxGeometry x="320" y="100" width="100" height="40" as="geometry" />
        </mxCell>
        <mxCell id="ZIjUHigKVdCdeJmHMCLA-28" value="" style="endArrow=none;html=1;rounded=0;exitX=0.5;exitY=0;exitDx=0;exitDy=0;exitPerimeter=0;entryX=0;entryY=0.5;entryDx=0;entryDy=0;" edge="1" parent="1" source="ZIjUHigKVdCdeJmHMCLA-1" target="ZIjUHigKVdCdeJmHMCLA-27">
          <mxGeometry width="50" height="50" relative="1" as="geometry">
            <mxPoint x="140" y="346" as="sourcePoint" />
            <mxPoint x="320" y="130" as="targetPoint" />
          </mxGeometry>
        </mxCell>
        <mxCell id="ZIjUHigKVdCdeJmHMCLA-29" value="" style="endArrow=none;html=1;rounded=0;entryX=0.5;entryY=0;entryDx=0;entryDy=0;entryPerimeter=0;exitX=1;exitY=0.5;exitDx=0;exitDy=0;" edge="1" parent="1" source="ZIjUHigKVdCdeJmHMCLA-27" target="ZIjUHigKVdCdeJmHMCLA-9">
          <mxGeometry width="50" height="50" relative="1" as="geometry">
            <mxPoint x="440" y="130" as="sourcePoint" />
            <mxPoint x="698" y="176" as="targetPoint" />
          </mxGeometry>
        </mxCell>
        <mxCell id="ZIjUHigKVdCdeJmHMCLA-30" value="Display LLM Result" style="ellipse;whiteSpace=wrap;html=1;align=center;" vertex="1" parent="1">
          <mxGeometry x="250" y="590" width="100" height="40" as="geometry" />
        </mxCell>
        <mxCell id="ZIjUHigKVdCdeJmHMCLA-31" value="" style="endArrow=none;html=1;rounded=0;exitX=1;exitY=1;exitDx=0;exitDy=0;exitPerimeter=0;entryX=0;entryY=0.5;entryDx=0;entryDy=0;" edge="1" parent="1" source="ZIjUHigKVdCdeJmHMCLA-1" target="ZIjUHigKVdCdeJmHMCLA-30">
          <mxGeometry width="50" height="50" relative="1" as="geometry">
            <mxPoint x="60" y="420" as="sourcePoint" />
            <mxPoint x="240" y="560" as="targetPoint" />
          </mxGeometry>
        </mxCell>
        <mxCell id="ZIjUHigKVdCdeJmHMCLA-32" value="" style="endArrow=none;html=1;rounded=0;exitX=1;exitY=0.5;exitDx=0;exitDy=0;entryX=0;entryY=1;entryDx=0;entryDy=0;entryPerimeter=0;" edge="1" parent="1" source="ZIjUHigKVdCdeJmHMCLA-20" target="ZIjUHigKVdCdeJmHMCLA-22">
          <mxGeometry width="50" height="50" relative="1" as="geometry">
            <mxPoint x="530" y="570" as="sourcePoint" />
            <mxPoint x="680" y="570" as="targetPoint" />
          </mxGeometry>
        </mxCell>
        <mxCell id="ZIjUHigKVdCdeJmHMCLA-33" value="Guest" style="shape=umlActor;verticalLabelPosition=bottom;verticalAlign=top;html=1;outlineConnect=0;" vertex="1" parent="1">
          <mxGeometry x="40" y="550" width="30" height="60" as="geometry" />
        </mxCell>
        <mxCell id="ZIjUHigKVdCdeJmHMCLA-34" value="" style="endArrow=none;html=1;rounded=0;exitX=1;exitY=1;exitDx=0;exitDy=0;exitPerimeter=0;" edge="1" parent="1" source="ZIjUHigKVdCdeJmHMCLA-33">
          <mxGeometry width="50" height="50" relative="1" as="geometry">
            <mxPoint x="30" y="460" as="sourcePoint" />
            <mxPoint x="250" y="610" as="targetPoint" />
          </mxGeometry>
        </mxCell>
        <mxCell id="ZIjUHigKVdCdeJmHMCLA-35" value="" style="endArrow=none;html=1;rounded=0;exitX=1;exitY=0.3333333333333333;exitDx=0;exitDy=0;exitPerimeter=0;entryX=0;entryY=0.5;entryDx=0;entryDy=0;" edge="1" parent="1" source="ZIjUHigKVdCdeJmHMCLA-33" target="ZIjUHigKVdCdeJmHMCLA-14">
          <mxGeometry width="50" height="50" relative="1" as="geometry">
            <mxPoint x="80" y="570" as="sourcePoint" />
            <mxPoint x="260" y="570" as="targetPoint" />
          </mxGeometry>
        </mxCell>
        <mxCell id="ZIjUHigKVdCdeJmHMCLA-36" value="" style="endArrow=none;html=1;rounded=0;exitX=0.75;exitY=0.1;exitDx=0;exitDy=0;exitPerimeter=0;entryX=0;entryY=1;entryDx=0;entryDy=0;" edge="1" parent="1" source="ZIjUHigKVdCdeJmHMCLA-33" target="ZIjUHigKVdCdeJmHMCLA-3">
          <mxGeometry width="50" height="50" relative="1" as="geometry">
            <mxPoint x="55" y="556" as="sourcePoint" />
            <mxPoint x="250" y="500" as="targetPoint" />
          </mxGeometry>
        </mxCell>
      </root>
    </mxGraphModel>
  </diagram>
</mxfile>
